<?xml version="1.0" encoding="utf-8"?>
<!-- Generator: Adobe Illustrator 16.0.4, SVG Export Plug-In . SVG Version: 6.00 Build 0)  -->
<!DOCTYPE svg PUBLIC "-//W3C//DTD SVG 1.1//EN" "http://www.w3.org/Graphics/SVG/1.1/DTD/svg11.dtd">
<svg version="1.1" id="svg" xmlns="http://www.w3.org/2000/svg" xmlns:xlink="http://www.w3.org/1999/xlink" x="0px" y="0px"
	 width="26px" height="26px" viewBox="0 0 26 26" enable-background="new 0 0 26 26" xml:space="preserve">
<path fill="#999999" d="M11.469,0.969l-0.562,3.562C10.052,4.741,9.234,5.059,8.5,5.5L5.562,3.406L3.438,5.531L5.5,8.469
	c-0.445,0.737-0.785,1.546-1,2.406l-3.531,0.594v3L4.5,15.094c0.213,0.857,0.553,1.668,1,2.406l-2.094,2.938l2.125,2.125L8.469,20.5
	c0.736,0.441,1.551,0.758,2.406,0.969l0.594,3.562h3l0.656-3.562c0.852-0.215,1.645-0.557,2.375-1l2.969,2.094l2.125-2.125
	L20.469,17.5c0.438-0.73,0.79-1.525,1-2.375l3.562-0.656v-3l-3.562-0.594c-0.212-0.849-0.562-1.645-1-2.375l2.094-2.969
	l-2.125-2.125L17.5,5.531c-0.732-0.443-1.551-0.787-2.406-1l-0.625-3.562H11.469z M13,6.469c3.604,0,6.531,2.927,6.531,6.531
	c0,3.604-2.928,6.531-6.531,6.531c-3.604,0-6.531-2.928-6.531-6.531C6.469,9.397,9.396,6.469,13,6.469z M13,8.062
	c-2.718,0-4.938,2.22-4.938,4.938s2.22,4.938,4.938,4.938s4.938-2.22,4.938-4.938S15.718,8.062,13,8.062z M12.969,10.938
	c1.146,0,2.094,0.916,2.094,2.062c0,1.146-0.947,2.062-2.094,2.062c-1.146,0-2.062-0.916-2.062-2.062
	C10.906,11.853,11.823,10.938,12.969,10.938z"/>
</svg>
