<?xml version="1.0" encoding="utf-8"?>
<!-- Generator: Adobe Illustrator 16.0.4, SVG Export Plug-In . SVG Version: 6.00 Build 0)  -->
<!DOCTYPE svg PUBLIC "-//W3C//DTD SVG 1.1//EN" "http://www.w3.org/Graphics/SVG/1.1/DTD/svg11.dtd">
<svg version="1.1" id="レイヤー_1" xmlns="http://www.w3.org/2000/svg" xmlns:xlink="http://www.w3.org/1999/xlink" x="0px"
	 y="0px" width="48px" height="48px" viewBox="0 0 48 48" enable-background="new 0 0 48 48" xml:space="preserve">
<path fill="#999999" d="M12,4c-0.28,0.08-6,5.18-6,8c0,1.34,0.473,2.107,1.312,3.188c1.324,1.508,2.877,2.357,3.938,2.938
	c0.283,0.149,0.488,0.295,0.75,0.438V40c0,2.2,1.8,4,4,4s4-1.8,4-4V18.562c0.265-0.147,0.467-0.28,0.75-0.438
	c0.06-0.02,2.794-1.404,4.062-3.062C25.604,14.026,26,13.28,26,12c0-2.82-5.72-7.92-6-8v6c0,0-1.78,1.167-4,1.188
	C13.78,11.167,12,10,12,10V4z M34,4l-2,6l2,2v14h-2c-1.1,0-2,0.9-2,2s0.9,2,2,2v2v2v6c0,2.2,1.8,4,4,4s4-1.8,4-4v-6v-2v-2
	c1.1,0,2-0.9,2-2s-0.9-2-2-2h-2V12l2-2l-2-6H34z M45.688,18.312c-0.184,0.158-0.402,0.284-0.625,0.438
	C45.267,18.594,45.502,18.484,45.688,18.312z"/>
</svg>
